<svg width="416" height="75" viewBox="0 0 416 75" fill="none" xmlns="http://www.w3.org/2000/svg">
<path d="M40 1.53027H48.8526L69 71.5303H61.6737L40 1.53027Z" fill="white"/>
<path d="M137.822 3.53027H145L121.972 71.5303H113L137.822 3.53027Z" fill="white"/>
<path d="M269 1.53027H278.644L297 37.9747L292.022 42.5303L269 1.53027Z" fill="white"/>
<rect x="291" y="36.5303" width="7" height="35" fill="white"/>
<path d="M366.779 2.99213L376.141 2.99212L350.168 71.672L341.999 71.672L366.779 2.99213Z" fill="white"/>
<path d="M83.9588 1.53027H92L69.4227 71.5303H62L83.9588 1.53027Z" fill="white"/>
<path d="M138 3.53027H147.411L172 71.5303H163.196L138 3.53027Z" fill="white"/>
<rect x="235" y="0.530273" width="7" height="71" fill="white"/>
<rect x="197.881" y="6.04688" width="8.85697" height="75.5034" transform="rotate(-29.6975 197.881 6.04688)" fill="white"/>
<path d="M312.023 1.53027H320L297.602 41.5303L293 36.4175L312.023 1.53027Z" fill="white"/>
<path d="M367 3.8325L375.657 3.53027L400 71.5303H391.444L367 3.8325Z" fill="white"/>
</svg>
