<svg width="1534" height="1024" viewBox="0 0 1534 1024" fill="none" xmlns="http://www.w3.org/2000/svg">
<circle cx="645.243" cy="519" r="372.804" stroke="white" stroke-opacity="0.5" stroke-width="2.5"/>
<path d="M0 60.7837H93.5135L402.108 706.027L350.676 799.54L0 60.7837Z" fill="white" fill-opacity="0.5"/>
<path d="M93.1982 61.2837L401.546 706.01L350.708 798.443L0.791016 61.2837H93.1982Z" stroke="white" stroke-opacity="0.5"/>
<path d="M865 303.919L911.757 201.054L1253.08 930.46H1159.57L865 303.919Z" fill="white" fill-opacity="0.5"/>
<path d="M1252.29 929.959H1159.89L865.55 303.916L911.763 202.248L1252.29 929.959Z" stroke="white" stroke-opacity="0.5"/>
<path d="M813.568 0L869.676 102.865L434.838 986.568L392.757 874.351L813.568 0Z" fill="white" fill-opacity="0.5"/>
<path d="M869.112 102.876L434.899 985.31L393.299 874.375L813.596 1.09473L869.112 102.876Z" stroke="white" stroke-opacity="0.5"/>
<line x1="1254.33" y1="23.3784" x2="1254.33" y2="1023.97" stroke="white" stroke-opacity="0.5" stroke-width="2.5"/>
<line x1="533.405" y1="990.966" x2="1534" y2="990.966" stroke="white" stroke-opacity="0.5" stroke-width="2.5"/>
</svg>
